<?xml version="1.0" encoding="utf-8"?>
<!-- Generator: Adobe Illustrator 26.0.2, SVG Export Plug-In . SVG Version: 6.00 Build 0)  -->
<svg version="1.1" id="Layer_1" xmlns="http://www.w3.org/2000/svg" xmlns:xlink="http://www.w3.org/1999/xlink" x="0px" y="0px"
	 viewBox="0 0 24 24" style="enable-background:new 0 0 24 24;" xml:space="preserve">
<style type="text/css">
	.st0{fill:#F4F4F4;}
</style>
<g id="disconnect-ab3_00000181792500222993533370000001660359539211766959_">
	<path id="Shape_00000134947344389874589110000010514787015636974465_" d="M18.6,9.5l-3.4,3.4c-0.2,0.2-0.2,0.6,0,0.8
		c0.2,0.3,0.6,0.2,0.8,0l3.4-3.4c0.2-0.2,0.2-0.6,0-0.8C19.1,9.2,18.8,9.3,18.6,9.5z"/>
	<path id="Shape_00000027597936896909970300000000913206387748108726_" d="M15.2,10.3l3.4,3.4c0.2,0.2,0.6,0.2,0.8,0
		c0.2-0.2,0.2-0.6,0-0.8l-3.4-3.4c-0.2-0.2-0.6-0.2-0.8,0C14.9,9.7,14.9,10.1,15.2,10.3z"/>
	<path id="Combined-Shape_00000119076383055179644690000016851693479376130190_" d="M9.4,5.6c1.9,0,4.8,1,4.8,3.8l0,0V18
		c0,0.3-0.5,0.4-0.7,0.4c-0.9,0-1.1-0.6-1.7-0.6c-0.3,0-0.9,0.5-1.3,0.5c-0.3,0-0.9-0.5-1.2-0.5c-0.3,0-0.8,0.5-1.2,0.5
		c-0.3,0-1-0.5-1.3-0.5c-0.7,0-0.7,0.6-1.7,0.6c-0.2,0-0.7-0.1-0.7-0.4l0,0l0.1-8.8C4.6,6.6,7.4,5.6,9.4,5.6z M9.4,7
		C7.9,7,5.8,7.8,5.8,9.8l-0.1,6.9c0,0.2,0.4,0.3,0.5,0.3c0.7,0,0.7-0.4,1.2-0.4c0.2,0,0.7,0.4,0.9,0.4c0.2,0,0.6-0.4,0.8-0.4
		c0.2,0,0.7,0.4,0.9,0.4c0.2,0,0.7-0.4,0.9-0.4c0.5,0,0.6,0.4,1.2,0.4c0.2,0,0.5-0.1,0.5-0.3V10C12.9,7.7,10.8,7,9.4,7z"/>
</g>
</svg>
